<?xml version="1.0" encoding="UTF-8" standalone="no"?>
<!-- Created with Inkscape (http://www.inkscape.org/) -->

<svg
   xmlns:dc="http://purl.org/dc/elements/1.1/"
   xmlns:cc="http://creativecommons.org/ns#"
   xmlns:rdf="http://www.w3.org/1999/02/22-rdf-syntax-ns#"
   xmlns:svg="http://www.w3.org/2000/svg"
   xmlns="http://www.w3.org/2000/svg"
   xmlns:sodipodi="http://sodipodi.sourceforge.net/DTD/sodipodi-0.dtd"
   xmlns:inkscape="http://www.inkscape.org/namespaces/inkscape"
   width="49.997166"
   height="49.997166"
   id="svg3847"
   version="1.1"
   inkscape:version="0.48.1 "
   sodipodi:docname="New document 4">
  <defs
     id="defs3849" />
  <sodipodi:namedview
     id="base"
     pagecolor="#ffffff"
     bordercolor="#666666"
     borderopacity="1.0"
     inkscape:pageopacity="0.0"
     inkscape:pageshadow="2"
     inkscape:zoom="0.35"
     inkscape:cx="-242.85906"
     inkscape:cy="-263.57293"
     inkscape:document-units="px"
     inkscape:current-layer="layer1"
     showgrid="false"
     fit-margin-top="0"
     fit-margin-left="0"
     fit-margin-right="0"
     fit-margin-bottom="0"
     inkscape:window-width="469"
     inkscape:window-height="425"
     inkscape:window-x="150"
     inkscape:window-y="150"
     inkscape:window-maximized="0" />
  <metadata
     id="metadata3852">
    <rdf:RDF>
      <cc:Work
         rdf:about="">
        <dc:format>image/svg+xml</dc:format>
        <dc:type
           rdf:resource="http://purl.org/dc/dcmitype/StillImage" />
        <dc:title></dc:title>
      </cc:Work>
    </rdf:RDF>
  </metadata>
  <g
     inkscape:label="Layer 1"
     inkscape:groupmode="layer"
     id="layer1"
     transform="translate(-617.85906,-218.79209)">
    <g
       id="g3880"
       transform="matrix(0.4773671,0,0,0.4773671,489.93879,34.496972)"
       inkscape:export-filename="C:\Users\steveno\Documents\My Dropbox\design\mapquery\logo.png"
       inkscape:export-xdpi="89.985718"
       inkscape:export-ydpi="89.985718">
      <path
         style="fill:#4082ae;fill-opacity:1;stroke:#4082ae;stroke-width:3;stroke-linecap:round;stroke-linejoin:round;stroke-miterlimit:4;stroke-opacity:1;stroke-dasharray:none;stroke-dashoffset:0"
         d="m 283.6875,403.56249 c -8.68726,9.04871 -14.03125,21.34063 -14.03125,34.875 0,27.81148 22.53227,50.34376 50.34375,50.34376 20.48919,0 38.10505,-12.24854 45.96875,-29.81251 -9.16537,9.55879 -22.02388,15.53125 -36.3125,15.53125 -27.81148,0 -50.375,-22.53227 -50.375,-50.34375 0,-7.33247 1.58859,-14.31002 4.40625,-20.59375 z"
         id="path3862"
         inkscape:connector-curvature="0" />
      <path
         inkscape:connector-curvature="0"
         id="path3864"
         d="m 306.22794,390.34821 c -6.72222,6.99917 -10.85741,16.50696 -10.85741,26.97579 0,21.51216 17.43552,38.94085 38.95609,38.94085 15.85457,0 29.48576,-9.47423 35.5707,-23.05995 -7.09218,7.39372 -17.04212,12.01341 -28.09868,12.01341 -21.52057,0 -38.98026,-17.42869 -38.98026,-38.94085 0,-5.67166 1.22925,-11.06879 3.40956,-15.92925 z"
         style="fill:#4e9a06;fill-opacity:1;stroke:#4e9a06;stroke-width:3;stroke-linecap:round;stroke-linejoin:round;stroke-miterlimit:4;stroke-opacity:1;stroke-dasharray:none;stroke-dashoffset:0" />
      <path
         style="fill:#a40000;fill-opacity:1;stroke:#a40000;stroke-width:3;stroke-linecap:round;stroke-linejoin:round;stroke-miterlimit:4;stroke-opacity:1;stroke-dasharray:none;stroke-dashoffset:0"
         d="m 325.48677,388.74105 c -4.08555,4.24913 -6.59878,10.02122 -6.59878,16.37675 0,13.05982 10.59676,23.64061 23.67629,23.64061 9.63591,0 17.92052,-5.75171 21.61876,-13.99947 -4.3104,4.48865 -10.35767,7.29323 -17.0775,7.29323 -13.07953,0 -23.69099,-10.58079 -23.69099,-23.64063 0,-3.4432 0.7471,-6.71975 2.07222,-9.67049 z"
         id="path3866"
         inkscape:connector-curvature="0" />
      <path
         transform="matrix(0.19632231,0.07762166,-0.14242661,0.36022836,318.69237,259.17451)"
         d="m 447.85715,428.79074 c 0,71.79702 -58.20299,130 -130,130 -71.79702,0 -130,-58.20298 -130,-130 0,-71.79702 58.20298,-130 130,-130 71.79701,0 130,58.20298 130,130 z"
         sodipodi:ry="130"
         sodipodi:rx="130"
         sodipodi:cy="428.79074"
         sodipodi:cx="317.85715"
         id="path3868"
         style="fill:none;stroke:#2e3436;stroke-width:13.98770237;stroke-linecap:round;stroke-linejoin:miter;stroke-miterlimit:4;stroke-opacity:1;stroke-dasharray:none;stroke-dashoffset:0"
         sodipodi:type="arc" />
      <path
         style="fill:none;stroke:#2e3436;stroke-width:4;stroke-linecap:round;stroke-linejoin:miter;stroke-miterlimit:4;stroke-opacity:1;stroke-dashoffset:0"
         d="m 301.50815,485.13937 c -1.00886,-0.39888 6.46295,-21.6886 16.68876,-47.55192 10.2258,-25.86332 19.3333,-46.50634 20.34215,-46.10745"
         id="path3870"
         inkscape:connector-curvature="0"
         sodipodi:nodetypes="csc" />
      <path
         style="fill:none;stroke:#2e3436;stroke-width:4;stroke-linecap:round;stroke-linejoin:miter;stroke-miterlimit:4;stroke-opacity:1;stroke-dashoffset:0"
         d="m 369.44202,448.44821 c -1.88071,4.47624 -25.81589,4.69709 -50.98687,-5.25498 -25.17098,-9.95206 -43.90554,-24.36113 -41.42909,-30.6246"
         id="path3872"
         inkscape:connector-curvature="0"
         sodipodi:nodetypes="csc" />
      <path
         sodipodi:nodetypes="csc"
         inkscape:connector-curvature="0"
         id="path3874"
         d="m 355.25884,474.56841 c -6.39592,5.13215 -23.94848,3.59231 -47.33552,-5.65443 -23.38704,-9.24674 -37.86199,-20.77317 -37.86199,-28.08374"
         style="fill:none;stroke:#2e3436;stroke-width:4;stroke-linecap:round;stroke-linejoin:miter;stroke-miterlimit:4;stroke-opacity:1;stroke-dashoffset:0" />
      <path
         style="fill:none;stroke:#2e3436;stroke-width:4;stroke-linecap:round;stroke-linejoin:miter;stroke-miterlimit:4;stroke-opacity:1;stroke-dashoffset:0"
         d="m 367.40764,421.55039 c -2.09747,4.03628 -19.27364,2.59439 -38.7404,-5.10235 -19.46677,-7.69674 -33.26269,-17.38571 -31.33372,-22.26451"
         id="path3876"
         inkscape:connector-curvature="0"
         sodipodi:nodetypes="csc" />
      <path
         transform="matrix(0.36022836,0.14242661,-0.14242661,0.36022836,266.90707,238.69971)"
         d="m 447.85715,428.79074 c 0,71.79702 -58.20299,130 -130,130 -71.79702,0 -130,-58.20298 -130,-130 0,-71.79702 58.20298,-130 130,-130 71.79701,0 130,58.20298 130,130 z"
         sodipodi:ry="130"
         sodipodi:rx="130"
         sodipodi:cy="428.79074"
         sodipodi:cx="317.85715"
         id="path3878"
         style="fill:none;stroke:#2e3436;stroke-width:10.32624149;stroke-linecap:round;stroke-linejoin:miter;stroke-miterlimit:4;stroke-opacity:1;stroke-dasharray:none;stroke-dashoffset:0"
         sodipodi:type="arc" />
    </g>
  </g>
</svg>
